<?xml version="1.0" encoding="utf-8"?>
<!-- Generator: Adobe Illustrator 16.0.0, SVG Export Plug-In . SVG Version: 6.00 Build 0)  -->
<!DOCTYPE svg PUBLIC "-//W3C//DTD SVG 1.1//EN" "http://www.w3.org/Graphics/SVG/1.1/DTD/svg11.dtd">
<svg version="1.1" id="Layer_1" xmlns="http://www.w3.org/2000/svg" xmlns:xlink="http://www.w3.org/1999/xlink" x="0px" y="0px"
	 width="122px" height="126px" viewBox="0 0 122 126" enable-background="new 0 0 122 126" xml:space="preserve">
<g>
	<g>
		<g>
			<path fill="#2B3036" d="M62.712,36.119c-12.531,0-22.569,3.171-30.118,9.511v10.644h60.235V45.63
				C85.28,39.29,75.241,36.119,62.712,36.119z"/>
			<path fill="#2B3036" d="M117.965,30.685L62.485,5.096L7.006,30.685l9.284,4.303v6.566c-1.509,0.302-2.265,1.358-2.265,3.17
				c0,0.905,0.302,1.661,0.906,2.264l-3.17,6.794h11.322l-3.17-6.794c0.604-0.604,0.906-1.359,0.906-2.264
				c0-0.604-0.377-1.283-1.131-2.038l-1.133-1.132v-5.435l11.776,5.209v-0.453c7.548-6.643,18.342-9.964,32.382-9.964
				c14.04,0,24.833,3.321,32.382,9.964v0.453L117.965,30.685z"/>
		</g>
	</g>
</g>
<path fill="#D04B47" d="M77.508,47.1c-5.889,0-11.182,2.495-14.921,6.47c-3.74-3.975-9.034-6.47-14.921-6.47
	c-11.326,0-20.507,9.182-20.507,20.508c0,11.324,9.181,20.505,20.507,20.505c5.887,0,11.181-2.495,14.921-6.469
	c3.74,3.975,9.033,6.469,14.921,6.469c11.324,0,20.506-9.181,20.506-20.505C98.014,56.282,88.832,47.1,77.508,47.1z M45.625,65.16
	c-1.127,0-2.041-0.913-2.041-2.041c0-1.126,0.913-2.039,2.041-2.039c1.126,0,2.04,0.913,2.04,2.039
	C47.665,64.247,46.75,65.16,45.625,65.16z M79.547,65.16c-1.127,0-2.041-0.913-2.041-2.041c0-1.126,0.914-2.039,2.041-2.039
	c1.126,0,2.039,0.913,2.039,2.039C81.586,64.247,80.673,65.16,79.547,65.16z"/>
<path fill="#3FA3DB" d="M100.553,65.29c-6.07,2.743,6.068,27.212-3.035,34.75c-6.574,5.439-28.03,10.271-34.932,21.189
	c-6.901-10.918-28.36-15.75-34.932-21.191c-9.103-7.535,3.034-32.006-3.035-34.748l37.967,14.103L100.553,65.29z"/>
<g>
	<g>
		<path fill-rule="evenodd" clip-rule="evenodd" fill="#D04B47" d="M26.349,68.478c0,0-6.152,1.376-7.696,9.611
			c0,0-1.608,8.409,4.837,9.391c3.953,0.602,11.127-1.084,10.143-6.202c-0.295-1.479-1.576-4.333-3.447-4.333
			c-1.476,0-1.476,1.379-2.264,2.166c-0.595,0.649-1.368,1.061-2.173,1.363l-0.675-0.031c0.689-4.417,1.48-8.587,1.316-11.471
			L26.349,68.478z"/>
	</g>
	<g>
		<path fill-rule="evenodd" clip-rule="evenodd" fill="#D04B47" d="M98.824,68.478c0,0,6.15,1.376,7.695,9.611
			c0,0,1.607,8.409-4.838,9.391c-3.953,0.602-11.129-1.084-10.143-6.202c0.293-1.479,1.576-4.333,3.445-4.333
			c1.477,0,1.477,1.379,2.264,2.166c0.598,0.649,1.369,1.061,2.174,1.363l0.676-0.031c-0.691-4.417-1.48-8.587-1.316-11.471
			L98.824,68.478z"/>
	</g>
</g>
</svg>
