<?xml version="1.0" encoding="UTF-8" standalone="no"?>
<svg width="490px" height="474px" viewBox="0 0 490 474" version="1.1" xmlns="http://www.w3.org/2000/svg" xmlns:xlink="http://www.w3.org/1999/xlink" xmlns:sketch="http://www.bohemiancoding.com/sketch/ns">
    <!-- Generator: Sketch 3.3.2 (12043) - http://www.bohemiancoding.com/sketch -->
    <title>Group</title>
    <desc>Created with Sketch.</desc>
    <defs></defs>
    <g id="Page-1" stroke="none" stroke-width="1" fill="none" fill-rule="evenodd" sketch:type="MSPage">
        <g id="donatedollar" sketch:type="MSLayerGroup" transform="translate(-1.000000, 0.000000)" fill="#FFFFFF">
            <g id="icons_3_" sketch:type="MSShapeGroup">
                <g id="Group">
                    <path d="M289.569,356.701 C288.881,355.998 288.126,355.502 287.318,355.227 C286.478,354.942 285.707,354.797 285.017,354.797 C284.329,354.797 283.554,354.942 282.715,355.227 C281.909,355.5 281.152,355.997 280.464,356.701 C279.765,357.418 279.16,358.436 278.666,359.729 C278.168,361.036 277.915,362.764 277.915,364.867 C277.915,366.971 278.168,368.699 278.666,370.003 C279.16,371.298 279.765,372.317 280.464,373.034 C281.152,373.737 281.909,374.233 282.715,374.507 C283.552,374.792 284.326,374.937 285.017,374.937 C285.706,374.937 286.48,374.792 287.318,374.507 C288.126,374.234 288.881,373.737 289.569,373.034 C290.267,372.319 290.874,371.3 291.367,370.003 C291.865,368.697 292.119,366.97 292.119,364.867 C292.119,362.766 291.866,361.038 291.367,359.729 C290.874,358.434 290.268,357.416 289.569,356.701 L289.569,356.701 Z" id="Shape"></path>
                    <path d="M365.714,369.768 L371.23,369.768 L368.575,360.643 L365.714,369.768 Z" id="Shape"></path>
                    <path d="M246.887,359.413 C246.311,358.491 245.431,357.683 244.274,357.011 C243.124,356.345 241.495,356.007 239.433,356.007 L236.291,356.007 L236.291,373.728 L240.313,373.728 C242.043,373.728 243.438,373.419 244.458,372.81 C245.49,372.195 246.288,371.433 246.829,370.548 C247.385,369.64 247.76,368.648 247.944,367.603 C248.139,366.511 248.236,365.517 248.236,364.648 C248.236,364.064 248.157,363.259 247.999,362.257 C247.85,361.311 247.476,360.354 246.887,359.413 L246.887,359.413 Z" id="Shape"></path>
                    <path d="M483.381,288.278 L197.672,288.278 C193.488,288.278 190.094,291.92 190.094,296.411 L190.094,433.323 C190.094,437.815 193.488,441.456 197.672,441.456 L217.308,441.456 L217.308,456.075 C217.308,460.136 221.192,463.315 226.153,463.315 C231.113,463.315 234.997,460.135 234.997,456.075 L234.997,441.456 L451.874,441.456 L451.874,456.798 C451.874,460.857 455.761,464.038 460.721,464.038 C465.68,464.038 469.565,460.856 469.565,456.798 L469.565,441.456 L483.381,441.456 C487.567,441.456 490.96,437.815 490.96,433.323 L490.96,296.411 C490.959,291.919 487.566,288.278 483.381,288.278 L483.381,288.278 Z M260.506,373.2 C259.668,375.729 258.374,377.909 256.656,379.684 C254.938,381.459 252.738,382.84 250.121,383.789 C247.525,384.728 244.447,385.205 240.972,385.205 L223.485,385.205 C223.094,385.205 222.777,384.889 222.777,384.498 L222.777,345.235 C222.777,344.843 223.094,344.527 223.485,344.527 L243.337,344.527 C246.693,344.527 249.585,345.116 251.928,346.277 C254.268,347.439 256.193,348.988 257.645,350.881 C259.088,352.762 260.148,354.955 260.792,357.401 C261.429,359.815 261.75,362.307 261.75,364.813 C261.751,367.877 261.332,370.701 260.506,373.2 L260.506,373.2 Z M304.155,373.393 C303.174,375.983 301.761,378.247 299.964,380.122 C298.161,381.999 295.963,383.487 293.43,384.546 C290.896,385.605 288.066,386.142 285.019,386.142 C281.97,386.142 279.14,385.605 276.607,384.546 C274.073,383.487 271.876,381.999 270.075,380.122 C268.274,378.247 266.863,375.983 265.882,373.393 C264.903,370.815 264.404,367.947 264.404,364.867 C264.404,361.788 264.902,358.92 265.882,356.341 C266.864,353.75 268.276,351.487 270.075,349.613 C271.874,347.737 274.072,346.248 276.607,345.188 C279.14,344.129 281.97,343.594 285.019,343.594 C288.066,343.594 290.897,344.131 293.43,345.188 C295.964,346.248 298.162,347.736 299.964,349.613 C301.763,351.488 303.173,353.75 304.155,356.341 C305.134,358.923 305.633,361.791 305.633,364.867 C305.632,367.945 305.134,370.813 304.155,373.393 L304.155,373.393 Z M346.156,384.499 C346.156,384.89 345.841,385.206 345.448,385.206 L333.68,385.206 C333.424,385.206 333.189,385.067 333.064,384.845 L322.238,365.564 L322.238,384.5 C322.238,384.891 321.921,385.207 321.528,385.207 L310.091,385.207 C309.698,385.207 309.383,384.891 309.383,384.5 L309.383,345.237 C309.383,344.845 309.698,344.529 310.091,344.529 L322.462,344.529 C322.723,344.529 322.961,344.67 323.085,344.898 L333.302,363.664 L333.302,345.236 C333.302,344.845 333.619,344.527 334.012,344.527 L345.448,344.527 C345.841,344.527 346.156,344.845 346.156,345.236 L346.156,384.499 L346.156,384.499 Z M389.359,384.903 C389.226,385.092 389.009,385.206 388.779,385.206 L376.241,385.206 C375.928,385.206 375.65,384.999 375.562,384.696 L374.061,379.596 L362.628,379.596 L361.024,384.709 C360.932,385.004 360.658,385.205 360.349,385.205 L348.197,385.205 C347.967,385.205 347.749,385.092 347.616,384.902 C347.483,384.712 347.453,384.468 347.532,384.252 L361.993,344.99 C362.097,344.713 362.362,344.527 362.658,344.527 L374.481,344.527 C374.778,344.527 375.044,344.713 375.145,344.993 L389.443,384.254 C389.523,384.473 389.491,384.715 389.359,384.903 L389.359,384.903 Z M420.72,354.96 C420.72,355.35 420.404,355.668 420.012,355.668 L409.723,355.668 L409.723,384.158 C409.723,384.551 409.406,384.867 409.014,384.867 L396.917,384.867 C396.525,384.867 396.207,384.551 396.207,384.158 L396.207,355.668 L385.918,355.668 C385.526,355.668 385.212,355.352 385.212,354.96 L385.212,344.897 C385.212,344.506 385.526,344.19 385.918,344.19 L420.012,344.19 C420.404,344.19 420.72,344.506 420.72,344.897 L420.72,354.96 L420.72,354.96 L420.72,354.96 Z M458.277,384.159 C458.277,384.552 457.962,384.868 457.569,384.868 L424.466,384.868 C424.073,384.868 423.758,384.552 423.758,384.159 L423.758,344.897 C423.758,344.506 424.073,344.19 424.466,344.19 L456.964,344.19 C457.355,344.19 457.671,344.506 457.671,344.897 L457.671,354.96 C457.671,355.35 457.355,355.668 456.964,355.668 L437.271,355.668 L437.271,359.147 L455.095,359.147 C455.486,359.147 455.802,359.463 455.802,359.854 L455.802,369.203 C455.802,369.595 455.486,369.911 455.095,369.911 L437.271,369.911 L437.271,373.39 L457.569,373.39 C457.962,373.39 458.277,373.706 458.277,374.097 L458.277,384.159 L458.277,384.159 Z" id="Shape"></path>
                    <path d="M102.433,88.307 C126.552,88.222 146.081,68.644 146.081,44.514 C146.081,20.364 126.552,0.795 102.433,0.71 C78.313,0.795 58.785,20.364 58.785,44.514 C58.784,68.643 78.313,88.221 102.433,88.307 L102.433,88.307 Z" id="Shape"></path>
                    <path d="M157.211,170.2 C177.583,187.137 200.766,202.308 226.395,209.614 C227.285,209.868 229.077,210.304 229.077,212.382 L229.077,241.717 C229.077,248.901 234.901,254.723 242.084,254.723 L259.426,254.723 C266.609,254.723 272.433,248.901 272.433,241.717 L272.433,191.858 L272.406,191.858 C272.195,184.607 267.925,178.053 258.305,176.6 C209.655,169.269 170.036,127.756 157.031,118.264 C144.025,108.772 138.063,105.529 130.476,102.548 C122.889,99.568 111.023,97.82 102.432,97.747 C93.841,97.82 87.655,98.122 83.839,98.558 C17.845,106.3 -4.088,183.898 1.961,242.145 L1.977,242.145 C2.846,252.739 11.703,261.069 22.52,261.069 C33.913,261.069 42.681,253.831 42.681,242.438 C42.681,240.156 41.53,234.512 40.431,228.823 C39.471,223.855 37.319,187.865 50.018,169.621 C51.014,168.189 52.159,167.86 52.159,169.851 C52.143,210.248 49.333,386.786 49.333,449.559 C49.333,483.174 94.689,479.057 94.689,449.559 C94.689,399.502 96.153,309.852 96.153,299.457 C96.153,289.062 109.841,291.327 109.841,299.148 C109.841,306.97 110.173,399.502 110.173,449.558 C110.173,479.468 155.529,481.115 155.529,449.558 C155.529,386.785 152.72,173.78 152.72,171.511 C152.722,167.716 155.919,169.125 157.211,170.2 L157.211,170.2 Z" id="Shape"></path>
                </g>
            </g>
        </g>
    </g>
</svg>