<?xml version="1.0" encoding="UTF-8" standalone="no"?>
<svg width="124px" height="113px" viewBox="0 0 124 113" version="1.1" xmlns="http://www.w3.org/2000/svg" xmlns:xlink="http://www.w3.org/1999/xlink" xmlns:sketch="http://www.bohemiancoding.com/sketch/ns">
    <!-- Generator: Sketch 3.3.2 (12043) - http://www.bohemiancoding.com/sketch -->
    <title>Group</title>
    <desc>Created with Sketch.</desc>
    <defs></defs>
    <g id="Page-1" stroke="none" stroke-width="1" fill="none" fill-rule="evenodd" sketch:type="MSPage">
        <g id="family" sketch:type="MSLayerGroup" fill="#FFFFFF">
            <g id="Group" sketch:type="MSShapeGroup">
                <circle id="Oval" cx="72.222" cy="29.669" r="9.261"></circle>
                <circle id="Oval" cx="96.19" cy="29.669" r="9.261"></circle>
                <path d="M104.3,91.041 C104.204,91.048 104.11,91.052 104.012,91.052 C102.033,91.052 100.423,89.442 100.423,87.461 C100.423,76.248 107.458,71.582 107.758,71.389 C107.824,71.346 107.891,71.308 107.958,71.276 C107.96,71.274 107.964,71.271 107.967,71.269 C107.958,71.227 107.948,71.185 107.939,71.141 C106.397,69.83 105.413,67.883 105.413,65.705 C105.413,64.656 105.644,63.664 106.053,62.767 C105.904,62.132 105.773,61.59 105.673,61.175 L105.673,54.25 C106.475,55.919 107.098,58.013 107.463,60.709 C108.758,59.391 110.558,58.57 112.547,58.57 C113.2,58.57 113.832,58.666 114.435,58.832 C112.751,48.476 107.631,44.395 102.395,41.185 C102.211,41.072 102.02,40.986 101.827,40.911 C100.794,40.229 99.637,39.729 98.455,39.447 C98.448,39.446 98.439,39.445 98.433,39.444 L96.197,41.792 L93.888,39.469 C92.606,39.784 91.351,40.357 90.256,41.139 C90.224,41.158 90.189,41.166 90.157,41.186 C88.104,42.444 86.071,43.837 84.257,45.686 C82.446,43.759 80.36,42.25 78.2,40.926 C77.885,40.731 77.546,40.609 77.202,40.523 C76.359,40.051 75.451,39.695 74.532,39.469 L72.223,41.792 L69.988,39.444 C69.979,39.445 69.97,39.446 69.965,39.447 C68.784,39.73 67.628,40.229 66.595,40.91 C66.401,40.986 66.207,41.072 66.024,41.185 C60.536,44.552 55.523,49.183 54.617,59.377 C55.594,58.863 56.701,58.57 57.878,58.57 C59.32,58.57 60.66,59.007 61.777,59.752 C61.95,57.957 62.28,56.436 62.747,55.129 L62.747,60.533 C64.091,61.818 64.933,63.623 64.933,65.625 C64.933,67.421 64.25,69.056 63.139,70.303 C63.181,70.424 63.217,70.545 63.264,70.662 C63.24,70.849 63.223,71.037 63.223,71.23 L63.223,71.64 C63.256,71.667 63.292,71.695 63.327,71.722 C64.627,72.687 70.211,77.406 70.211,87.331 C70.211,89.294 68.614,90.893 66.649,90.893 C65.898,90.893 65.204,90.66 64.628,90.262 C64.603,90.325 64.575,90.388 64.548,90.45 L64.546,107.704 C64.546,108.022 64.506,108.331 64.438,108.629 C65.211,109.419 66.287,109.909 67.477,109.909 C69.825,109.909 71.726,108.007 71.726,105.659 L71.72,76.111 C71.888,76.121 72.056,76.132 72.225,76.132 C72.258,76.132 72.292,76.129 72.326,76.128 L72.325,105.659 C72.325,108.006 74.227,109.909 76.575,109.909 C78.922,109.909 80.825,108.006 80.825,105.659 L80.826,71.44 C80.88,71.337 80.931,71.233 80.981,71.129 C81.036,71.131 81.086,71.144 81.138,71.144 L81.191,71.144 C82.254,71.13 83.203,70.651 83.85,69.907 C84.08,70.112 84.338,70.288 84.618,70.43 C83.13,77.16 81.472,85.037 81.464,86.762 C81.457,88.175 84.007,89.386 87.601,90.149 L87.601,105.661 C87.601,108.008 89.503,109.909 91.85,109.909 C94.199,109.909 96.1,108.007 96.1,105.659 L96.1,91.008 C96.299,91.008 96.501,91.008 96.703,91.007 L96.7,105.66 C96.7,108.007 98.601,109.908 100.95,109.91 C103.298,109.91 105.198,108.008 105.198,105.66 L105.2,98.578 L102.971,98.578 L104.3,91.041 L104.3,91.041 Z" id="Shape"></path>
                <circle id="Oval" cx="58.125" cy="65.517" r="5.419"></circle>
                <path d="M66.895,89.15 C67.96,89.15 68.822,88.289 68.822,87.223 C68.822,77.935 63.657,73.693 62.546,72.889 C62.172,72.554 61.686,72.22 61.039,71.867 C60.546,71.592 60.016,71.385 59.477,71.252 L58.126,72.611 L56.815,71.236 C56.812,71.236 56.807,71.238 56.803,71.24 C55.959,71.441 55.146,71.84 54.454,72.383 C54.395,72.412 54.337,72.436 54.28,72.471 C54.015,72.642 47.791,76.774 47.791,86.955 C47.791,88.019 48.652,88.883 49.718,88.883 C50.781,88.883 51.644,88.02 51.644,86.955 C51.644,84.642 52.031,82.746 52.578,81.201 L52.578,87.928 C52.578,88.492 52.686,89.022 52.882,89.508 C52.866,89.617 52.856,89.728 52.856,89.841 L52.858,107.597 C52.858,108.97 53.972,110.084 55.345,110.082 C56.717,110.082 57.83,108.969 57.83,107.597 L57.83,92.697 C57.928,92.701 58.026,92.709 58.126,92.709 C58.145,92.709 58.164,92.709 58.184,92.707 L58.184,107.597 C58.184,108.97 59.297,110.082 60.671,110.082 C62.044,110.082 63.158,108.969 63.158,107.597 L63.159,89.964 C63.483,89.36 63.676,88.677 63.676,87.928 L63.676,80.549 C64.409,82.237 64.97,84.426 64.97,87.225 C64.969,88.287 65.83,89.15 66.895,89.15 L66.895,89.15 Z" id="Shape"></path>
                <circle id="Oval" cx="112.798" cy="65.597" r="5.5"></circle>
                <path d="M117.282,73.078 C116.903,72.738 116.41,72.4 115.754,72.041 C115.253,71.762 114.714,71.552 114.168,71.416 L112.798,72.797 L111.47,71.402 C111.466,71.402 111.459,71.404 111.455,71.404 C110.601,71.609 109.773,72.013 109.073,72.566 C109.011,72.594 108.953,72.617 108.896,72.654 C108.625,72.826 102.309,77.019 102.309,87.353 C102.309,88.434 103.184,89.309 104.264,89.309 C105.344,89.309 106.22,88.434 106.22,87.353 C106.22,85.005 106.613,83.082 107.165,81.514 L107.165,85.529 L105.166,96.836 L107.447,96.836 L107.45,108.302 C107.45,109.698 108.579,110.826 109.971,110.826 C111.367,110.826 112.493,109.697 112.493,108.302 L112.493,96.836 L112.851,96.836 L112.85,108.302 C112.85,109.698 113.981,110.826 115.374,110.826 C116.767,110.826 117.897,109.697 117.897,108.302 L117.897,96.836 L120.407,96.836 L118.423,85.625 L118.423,80.852 C119.166,82.564 119.736,84.788 119.736,87.627 C119.736,88.707 120.61,89.584 121.693,89.584 C122.772,89.584 123.647,88.709 123.647,87.627 C123.653,78.201 118.41,73.895 117.282,73.078 L117.282,73.078 Z" id="Shape"></path>
                <path d="M49.75,108.222 L49.748,92.591 L49.695,92.591 C46.931,92.591 44.684,90.343 44.684,87.58 C44.684,81.039 46.919,76.636 49.023,73.932 L39.81,73.932 L39.81,103.422 L23.309,103.422 L23.309,47.604 L55.342,47.604 C57.711,43.87 60.85,41.401 63.952,39.455 C61.442,37.194 59.852,33.931 59.852,30.295 C59.852,23.489 65.389,17.951 72.197,17.951 C74.28,17.951 76.238,18.477 77.96,19.393 L55.832,2.144 C54.969,1.237 53.772,0.723 52.521,0.723 C51.269,0.723 50.073,1.237 49.21,2.144 L20.798,26.016 L20.798,13.123 L8.574,13.103 L8.574,34.696 L1.811,41.46 C-0.603,43.874 -0.603,47.786 1.811,50.198 C4.223,52.612 8.135,52.612 10.549,50.198 L13.802,46.946 L13.802,108.176 C13.802,110.801 15.931,112.928 18.556,112.928 L52.356,112.928 C50.793,111.941 49.75,110.203 49.75,108.222 L49.75,108.222 Z" id="Shape"></path>
            </g>
        </g>
    </g>
</svg>