<?xml version="1.0" encoding="UTF-8" standalone="no"?>
<svg width="302px" height="430px" viewBox="0 0 302 430" version="1.1" xmlns="http://www.w3.org/2000/svg" xmlns:xlink="http://www.w3.org/1999/xlink" xmlns:sketch="http://www.bohemiancoding.com/sketch/ns">
    <!-- Generator: Sketch 3.3.2 (12043) - http://www.bohemiancoding.com/sketch -->
    <title>Group</title>
    <desc>Created with Sketch.</desc>
    <defs></defs>
    <g id="Page-1" stroke="none" stroke-width="1" fill="none" fill-rule="evenodd" sketch:type="MSPage">
        <g id="father" sketch:type="MSLayerGroup" fill="#FFFFFF">
            <g id="Group" sketch:type="MSShapeGroup">
                <path d="M93.486,109.782 C123.798,109.782 148.381,85.205 148.381,54.887 C148.381,24.574 123.798,0 93.486,0 C63.175,0 38.593,24.574 38.593,54.888 C38.594,85.205 63.176,109.782 93.486,109.782 L93.486,109.782 Z" id="Shape"></path>
                <path d="M109.912,120.076 C104.805,118.144 99.27,117.077 93.487,117.077 C87.697,117.077 82.157,118.145 77.047,120.08 C62.666,124.442 8.476,147.701 0.643,251.801 C-0.081,261.393 7.112,269.754 16.704,270.474 C17.148,270.509 17.59,270.526 18.029,270.526 C27.055,270.526 34.689,263.561 35.378,254.412 C37.164,230.683 41.541,212.458 47.04,198.48 L47.04,252.102 C47.04,255.759 47.473,259.316 48.272,262.728 L48.272,409.678 C48.272,420.903 57.373,429.999 68.593,429.999 C79.818,429.999 88.914,420.902 88.914,409.678 L88.914,298.327 C90.419,298.474 91.941,298.55 93.485,298.55 C95.027,298.55 96.553,298.474 98.059,298.327 L98.059,409.679 C98.059,420.904 107.156,430 118.377,430 C129.601,430 138.698,420.903 138.698,409.679 L138.698,262.716 C139.495,259.305 139.931,255.756 139.931,252.104 L139.931,198.475 C145.43,212.454 149.805,230.68 151.59,254.413 C152.278,263.563 159.916,270.528 168.942,270.528 C169.38,270.528 169.822,270.51 170.266,270.476 C179.859,269.756 187.048,261.396 186.328,251.803 C178.501,147.659 124.267,124.424 109.912,120.076 L109.912,120.076 Z" id="Shape"></path>
                <path d="M244.242,256.523 C262.894,256.523 278.022,241.398 278.022,222.743 C278.022,204.088 262.894,188.965 244.242,188.965 C225.585,188.965 210.461,204.088 210.461,222.743 C210.461,241.398 225.585,256.523 244.242,256.523 L244.242,256.523 Z" id="Shape"></path>
                <path d="M301.376,343.916 C296.56,279.892 263.243,265.559 254.376,262.865 C251.223,261.669 247.812,261.008 244.243,261.008 C240.677,261.008 237.268,261.668 234.12,262.862 C225.266,265.545 191.926,279.862 187.106,343.916 C186.659,349.818 191.085,354.964 196.987,355.408 C197.261,355.428 197.532,355.44 197.803,355.44 C203.359,355.44 208.058,351.156 208.482,345.526 C209.58,330.919 212.273,319.703 215.66,311.1 L215.66,334.981 C215.66,337.225 215.925,339.407 216.416,341.503 L216.416,413.662 C216.416,420.568 222.013,426.165 228.919,426.165 C235.826,426.165 241.426,420.568 241.426,413.662 L241.426,363.424 C242.352,363.518 243.292,363.565 244.241,363.565 C245.19,363.565 246.129,363.518 247.054,363.425 L247.054,413.662 C247.054,420.568 252.654,426.165 259.56,426.165 C266.463,426.165 272.063,420.568 272.063,413.662 L272.063,341.514 C272.555,339.416 272.821,337.231 272.821,334.981 L272.821,311.208 C276.205,319.8 278.903,330.984 279.997,345.526 C280.42,351.155 285.12,355.44 290.676,355.44 C290.943,355.44 291.216,355.428 291.489,355.408 C297.393,354.964 301.82,349.818 301.376,343.916 L301.376,343.916 Z" id="Shape"></path>
            </g>
        </g>
    </g>
</svg>