<?xml version="1.0" encoding="UTF-8" standalone="no"?>
<svg width="396px" height="420px" viewBox="0 0 396 420" version="1.1" xmlns="http://www.w3.org/2000/svg" xmlns:xlink="http://www.w3.org/1999/xlink" xmlns:sketch="http://www.bohemiancoding.com/sketch/ns">
    <!-- Generator: Sketch 3.3.2 (12043) - http://www.bohemiancoding.com/sketch -->
    <title>homeheart</title>
    <desc>Created with Sketch.</desc>
    <defs></defs>
    <g id="Page-1" stroke="none" stroke-width="1" fill="none" fill-rule="evenodd" sketch:type="MSPage">
        <g id="homeheart" sketch:type="MSLayerGroup" fill="#FFFFFF">
            <path d="M378.695,157.338 L237.871,16.514 C227.223,5.865 213.059,0 198,0 C182.941,0 168.777,5.865 158.13,16.514 L17.307,157.338 C-4.677,179.322 -4.677,215.092 17.309,237.076 C24.857,244.625 34.184,249.781 44.338,252.127 L44.338,363.609 C44.338,394.699 69.638,420 100.729,420 L295.274,420 C326.366,420 351.665,394.699 351.665,363.609 L351.665,252.129 C361.818,249.783 371.144,244.625 378.696,237.076 C400.678,215.092 400.678,179.322 378.695,157.338 L378.695,157.338 Z M233.965,302.637 C220.772,311.477 208.312,319.83 205.727,328.905 C204.759,332.301 201.69,334.664 198.162,334.735 C198.11,334.737 198.056,334.737 198.001,334.737 C194.537,334.737 191.457,332.512 190.372,329.213 C187.275,319.791 174.827,311.433 161.649,302.578 C138.2,286.828 109.018,267.225 109.018,227.567 C109.018,197.201 133.725,172.492 164.095,172.492 C176.578,172.492 188.367,176.588 198.001,184.154 C207.634,176.588 219.424,172.492 231.909,172.492 C262.277,172.492 286.983,197.201 286.983,227.567 C286.983,267.092 257.584,286.799 233.965,302.637 L233.965,302.637 Z" id="Shape" sketch:type="MSShapeGroup"></path>
        </g>
    </g>
</svg>