<?xml version="1.0" encoding="iso-8859-1"?>
<!-- Generator: Adobe Illustrator 16.0.0, SVG Export Plug-In . SVG Version: 6.00 Build 0)  -->
<!DOCTYPE svg PUBLIC "-//W3C//DTD SVG 1.1//EN" "http://www.w3.org/Graphics/SVG/1.1/DTD/svg11.dtd">
<svg version="1.1" id="Capa_1" xmlns="http://www.w3.org/2000/svg" xmlns:xlink="http://www.w3.org/1999/xlink" x="0px" y="0px"
	 width="45.807px" height="45.807px" viewBox="0 0 45.807 45.807" style="enable-background:new 0 0 45.807 45.807;"
	 xml:space="preserve">
<g>
	<path d="M45.345,31.8L30.99,13.23l0.003-0.003l2.694-2.696c0.416-0.416,0.646-0.979,0.646-1.567c0-0.589-0.233-1.152-0.649-1.568
		l-5.019-5.017c-3.165-3.166-8.296-3.166-11.462,0l-5.017,5.017c-0.416,0.416-0.649,0.979-0.649,1.568
		c0,0.587,0.233,1.151,0.649,1.567l2.65,2.659l0.005,0.005L0.463,31.8c-0.729,0.945-0.582,2.295,0.334,3.059l2.228,1.857
		c0.915,0.764,2.271,0.666,3.068-0.221l6.468-7.199l0.557,14.387c0.045,1.189,1.028,2.119,2.219,2.119h6.037V15.459
		c0-0.013-0.009-0.025-0.022-0.038l-5.394-5.404c-0.583-0.583-0.579-1.527,0.004-2.11l2.234-2.232c2.617-2.617,6.862-2.617,9.478,0
		l2.232,2.232c0.583,0.583,0.583,1.527,0.001,2.11l-5.393,5.404c-0.034,0.034-0.095,0.066-0.095,0.097v30.283h6.115
		c1.191,0,2.169-0.93,2.215-2.121l0.55-14.324l0,0l6.414,7.137c0.796,0.887,2.152,0.984,3.068,0.221l2.228-1.856
		C45.925,34.095,46.073,32.745,45.345,31.8z"/>
</g>
<g>
</g>
<g>
</g>
<g>
</g>
<g>
</g>
<g>
</g>
<g>
</g>
<g>
</g>
<g>
</g>
<g>
</g>
<g>
</g>
<g>
</g>
<g>
</g>
<g>
</g>
<g>
</g>
<g>
</g>
</svg>
