<?xml version="1.0" encoding="UTF-8" standalone="no"?>
<svg width="25px" height="22px" viewBox="0 0 25 22" version="1.1" xmlns="http://www.w3.org/2000/svg" xmlns:xlink="http://www.w3.org/1999/xlink" xmlns:sketch="http://www.bohemiancoding.com/sketch/ns">
    <!-- Generator: Sketch 3.3.2 (12043) - http://www.bohemiancoding.com/sketch -->
    <title>Group</title>
    <desc>Created with Sketch.</desc>
    <defs></defs>
    <g id="Page-1" stroke="none" stroke-width="1" fill="none" fill-rule="evenodd" sketch:type="MSPage">
        <g id="kids2" sketch:type="MSLayerGroup" fill="#FFFFFF">
            <g id="Group" sketch:type="MSShapeGroup">
                <path d="M6.42,8.301 C8.191,8.301 9.625,6.866 9.625,5.093 C9.625,3.988 10.014,2.976 9.16,2.402 C8.648,2.053 6.4,1.888 5.736,1.888 C4.946,1.888 3.919,2.532 3.36,3.007 C2.665,3.594 3.213,4.111 3.213,5.092 C3.213,6.866 4.646,8.301 6.42,8.301 L6.42,8.301 Z M4.186,4.779 C4.775,4.672 5.175,4.866 5.175,4.866 L6.159,4.387 C6.159,4.387 5.658,5.111 6.108,4.866 C7.11,4.53 8.231,4.67 8.801,4.782 C8.821,4.907 8.839,5.035 8.839,5.168 C8.839,6.488 7.791,7.555 6.49,7.555 C5.196,7.555 4.147,6.488 4.147,5.168 C4.147,5.035 4.165,4.907 4.186,4.779 L4.186,4.779 Z" id="Shape"></path>
                <path d="M22.066,4.643 C22.051,4.46 22.036,4.278 21.996,4.102 C21.869,2.978 20.863,0.694 17.976,0.762 C15.488,0.821 14.945,2.694 14.814,3.834 C14.726,4.114 14.669,4.407 14.65,4.712 C11.414,5.277 11.77,8.561 13.746,8.617 C13.558,6.902 14.376,5.872 14.691,5.541 C14.982,7.312 16.511,8.673 18.363,8.673 C20.119,8.673 21.585,7.45 21.982,5.815 C22.285,6.349 22.794,7.443 22.67,8.618 C25.783,8.591 24.251,5.032 22.066,4.643 L22.066,4.643 Z M18.363,7.617 C16.908,7.617 15.724,6.445 15.691,4.996 C16.222,4.803 16.616,3.883 16.616,3.883 C16.616,3.883 16.931,3.991 16.931,5.03 C17.482,5.222 18.439,3.416 18.439,3.416 L18.439,4.839 C19.046,5.005 20.96,4.785 20.96,4.785 L21.031,4.845 C21.032,4.875 21.04,4.906 21.04,4.937 C21.042,6.415 19.842,7.617 18.363,7.617 L18.363,7.617 Z" id="Shape"></path>
                <path d="M19.143,8.769 L17.568,8.769 L16.253,8.769 L12.402,13.409 L8.675,8.827 L4.438,8.827 L0,13.699 L0.93,14.658 L4.107,11.947 L4.107,17.205 L4.744,17.205 L4.744,21.202 L4.339,21.202 L4.339,21.671 L6.184,21.671 L6.184,21.202 L6.184,17.205 L6.875,17.205 L6.875,21.202 L6.875,21.671 L8.716,21.671 L8.716,21.202 L8.312,21.202 L8.312,17.205 L9.085,17.205 L9.085,12.046 L11.625,14.654 L12.663,14.398 L13.238,14.542 L16.115,11.249 L16.279,12.554 L13.607,17.146 L16.689,17.146 L16.689,21.144 L16.284,21.144 L16.284,21.609 L18.127,21.609 L18.127,21.144 L18.129,21.144 L18.129,17.146 L18.818,17.146 L18.818,21.144 L18.818,21.609 L20.662,21.609 L20.662,21.144 L20.257,21.144 L20.257,17.146 L22.646,17.146 L20.292,12.554 L20.421,10.948 L22.67,13.962 L24.16,13.591 L20.594,8.769 L19.143,8.769 Z" id="Shape"></path>
            </g>
        </g>
    </g>
</svg>