<?xml version="1.0" encoding="UTF-8" standalone="no"?>
<svg width="78px" height="113px" viewBox="0 0 78 113" version="1.1" xmlns="http://www.w3.org/2000/svg" xmlns:xlink="http://www.w3.org/1999/xlink" xmlns:sketch="http://www.bohemiancoding.com/sketch/ns">
    <!-- Generator: Sketch 3.3.2 (12043) - http://www.bohemiancoding.com/sketch -->
    <title>Shape</title>
    <desc>Created with Sketch.</desc>
    <defs></defs>
    <g id="Page-1" stroke="none" stroke-width="1" fill="none" fill-rule="evenodd" sketch:type="MSPage">
        <g id="family" sketch:type="MSLayerGroup" fill="#FFFFFF">
            <g id="Group" sketch:type="MSShapeGroup">
                <path d="M49.75,108.222 L49.748,92.591 L49.695,92.591 C46.931,92.591 44.684,90.343 44.684,87.58 C44.684,81.039 46.919,76.636 49.023,73.932 L39.81,73.932 L39.81,103.422 L23.309,103.422 L23.309,47.604 L55.342,47.604 C57.711,43.87 60.85,41.401 63.952,39.455 C61.442,37.194 59.852,33.931 59.852,30.295 C59.852,23.489 65.389,17.951 72.197,17.951 C74.28,17.951 76.238,18.477 77.96,19.393 L55.832,2.144 C54.969,1.237 53.772,0.723 52.521,0.723 C51.269,0.723 50.073,1.237 49.21,2.144 L20.798,26.016 L20.798,13.123 L8.574,13.103 L8.574,34.696 L1.811,41.46 C-0.603,43.874 -0.603,47.786 1.811,50.198 C4.223,52.612 8.135,52.612 10.549,50.198 L13.802,46.946 L13.802,108.176 C13.802,110.801 15.931,112.928 18.556,112.928 L52.356,112.928 C50.793,111.941 49.75,110.203 49.75,108.222 L49.75,108.222 Z" id="Shape"></path>
            </g>
        </g>
    </g>
</svg>